<?xml version="1.0" encoding="utf-8"?>
<!-- Generator: Adobe Illustrator 15.0.0, SVG Export Plug-In . SVG Version: 6.00 Build 0)  -->
<!DOCTYPE svg PUBLIC "-//W3C//DTD SVG 1.1//EN" "http://www.w3.org/Graphics/SVG/1.1/DTD/svg11.dtd">
<svg version="1.1" id="Layer_1" xmlns="http://www.w3.org/2000/svg" xmlns:xlink="http://www.w3.org/1999/xlink" x="0px" y="0px"
	 width="110.348px" height="139.959px" viewBox="0 325.681 110.348 139.959" enable-background="new 0 325.681 110.348 139.959"
	 xml:space="preserve">
<title>RC_Logo_Black</title>
<g id="Layer_2">
	<g id="Layer_1-2">
		<path d="M102.33,453.863c-9.131-13.477-18.262-26.879-27.392-40.209c-0.122-0.174-0.236-0.354-0.34-0.539l2-0.68
			c4.711-1.658,9.096-4.128,12.956-7.299c4.812-4.028,8.642-9.103,11.197-14.835c1.34-2.958,2.32-6.066,2.919-9.257
			c0.831-4.312,1.106-8.714,0.82-13.096c-0.318-5.846-1.8-11.569-4.359-16.835c-1.944-3.945-4.494-7.561-7.558-10.717
			c-4.25-4.365-9.383-7.773-15.056-9.997c-4.734-1.858-9.698-3.068-14.755-3.599c-2.2-0.26-4.399-0.46-6.598-0.58
			c-3.399-0.2-6.818-0.3-10.177-0.54h-1.22H0.3v24.153c1.54-0.24,2.999-0.48,4.479-0.68c1.479-0.2,2.979-0.38,4.458-0.5
			c1.479-0.12,2.999-0.2,4.499-0.26h4.559v-4.719h5.999v9.997h22.173c0.106,1.998,0.106,4,0,5.999H24.293v19.994h21.994v5.998
			H24.293v9.697h-5.999v-5.999h-0.54l-5.398-0.12c-2.802-0.149-5.593-0.463-8.357-0.94c-1.22-0.18-2.479-0.42-3.759-0.64
			c0,0,0,0-0.14,0H0l0,0c0,0,0,0,0,0.16v77.817h38.289v-47.826l0,0l0,0l0,0L66.36,465.64h43.987l0,0L102.33,453.863z"/>
		<path fill="#DA0000" d="M67.4,378.505l-3.999-1.06l-3.999-1.08c-1.339-0.36-2.639-0.78-3.999-1.06c-0.2,0.74-0.4,1.419-0.58,2
			c-0.34,1.239-0.66,2.479-1,3.719s-0.66,2.559-1.02,3.819l-0.48,1.759c0,0.1-0.12,0.22-0.2,0.24c-0.08,0.02-0.2-0.12-0.24-0.24
			l-0.7-2.339c-0.48-1.74-0.96-3.499-1.42-5.239l-0.979-3.699c-0.16-0.01-0.32-0.01-0.48,0l-6.318,1.759l-5.119,1.36
			c-0.084,0.03-0.176,0.03-0.26,0c0.43-0.527,0.897-1.021,1.399-1.479l1.459-1.48l1.479-1.459l1.46-1.479l1.479-1.459l1.479-1.5
			c-0.14-0.14-0.24-0.28-0.36-0.38l-7.638-7.738c-0.108-0.085-0.203-0.186-0.28-0.3c-0.02-0.099-0.02-0.201,0-0.3
			c0.12,0,0.22,0,0.32,0l1.52,0.4l5.778,1.56l3.719,1h0.42c0.2-0.72,0.4-1.419,0.58-2.12l1.2-4.438
			c0.38-1.439,0.76-2.899,1.16-4.339c0-0.2,0-0.38,0.16-0.58c0.16-0.2,0.12-0.14,0.18-0.12c0.092,0.007,0.174,0.06,0.22,0.14
			c0,0.32,0.2,0.66,0.28,1c0.68,2.559,1.359,5.119,2,7.678c0.24,0.9,0.48,1.819,0.74,2.699c1.989-0.351,3.952-0.832,5.878-1.439
			c1.918-0.639,3.884-1.127,5.878-1.459c0.12,0.22,0,0.36-0.2,0.479l-1.58,1.58l-6.358,6.338l-0.3,0.34
			c1.459,1.479,2.939,2.939,4.399,4.398l4.378,4.399L67.4,378.505z"/>
	</g>
</g>
</svg>
