<?xml version="1.0" encoding="utf-8"?>
<!-- Generator: Adobe Illustrator 15.0.0, SVG Export Plug-In . SVG Version: 6.00 Build 0)  -->
<!DOCTYPE svg PUBLIC "-//W3C//DTD SVG 1.1//EN" "http://www.w3.org/Graphics/SVG/1.1/DTD/svg11.dtd">
<svg version="1.1" id="Layer_1" xmlns="http://www.w3.org/2000/svg" xmlns:xlink="http://www.w3.org/1999/xlink" x="0px" y="0px"
	 width="55.15px" height="70px" viewBox="0 0 55.15 70" enable-background="new 0 0 55.15 70" xml:space="preserve">
<g>
	<defs>
		<rect id="SVGID_1_" width="55.15" height="70"/>
	</defs>
	<clipPath id="SVGID_2_">
		<use xlink:href="#SVGID_1_"  overflow="visible"/>
	</clipPath>
	<path clip-path="url(#SVGID_2_)" fill="#F7F7F8" d="M51.181,64.11c-4.571-6.721-9.13-13.44-13.7-20.15
		c-0.061-0.08-0.111-0.17-0.17-0.271c0.339-0.119,0.649-0.22,0.969-0.34c2.361-0.85,4.54-2.04,6.481-3.649
		c2.429-2.021,4.269-4.511,5.599-7.42c0.67-1.47,1.161-3.04,1.46-4.63c0.42-2.17,0.55-4.36,0.411-6.55
		c-0.191-2.95-0.871-5.77-2.18-8.42c-0.971-1.97-2.231-3.74-3.75-5.32c-2.16-2.25-4.691-3.89-7.53-5.04
		c-2.351-0.96-4.86-1.46-7.38-1.76c-1.102-0.13-2.201-0.23-3.301-0.29c-1.7-0.1-3.41-0.15-5.12-0.23
		c-0.2-0.01-0.401-0.03-0.611-0.04H0.149v12.08c0.771-0.12,1.5-0.24,2.241-0.34c0.74-0.1,1.49-0.19,2.229-0.25
		c0.75-0.06,1.5-0.1,2.25-0.13c0.75-0.02,1.5-0.03,2.28-0.05V9h3v5h11.09v0.01c0.05,0.14,0.071,2.29,0.021,2.99H12.149v10h11v2.99
		h-4l-7,0.01v4.85H9.13l0.019-3.05c-0.11-0.01-0.189-0.02-0.269-0.02c-0.9-0.02-1.8-0.05-2.7-0.06c-1.401-0.04-2.781-0.2-4.151-0.4
		c-0.639-0.09-1.269-0.21-1.91-0.31c-0.019-0.01-0.05,0-0.069,0c-0.011,0-0.021,0.01-0.021,0.01c-0.009,0.01-0.019,0.02-0.019,0.02
		c0,0.03-0.01,0.05-0.01,0.08v38.84h19.149V46.08c0.031-0.01,0.04-0.021,0.04-0.021c0.01,0,0.021,0,0.021,0.011
		c0.01,0,0.02,0,0.02,0.01C23.88,54.05,28.529,62.02,33.189,70h21.69c0.091,0,0.181-0.01,0.27-0.01v-0.051
		C53.83,68,52.5,66.05,51.181,64.11 M33.71,26.42c-0.659-0.18-1.319-0.35-1.979-0.53c-0.68-0.18-1.351-0.36-2.031-0.54
		c-0.67-0.18-1.319-0.39-2.01-0.53c-0.1,0.37-0.2,0.71-0.29,1.05c-0.169,0.62-0.33,1.24-0.5,1.86c-0.16,0.64-0.33,1.28-0.509,1.91
		c-0.08,0.3-0.16,0.59-0.241,0.88c-0.019,0.05-0.059,0.11-0.099,0.12c-0.09,0.02-0.101-0.06-0.12-0.12
		c-0.111-0.41-0.22-0.81-0.33-1.22c-0.241-0.87-0.481-1.75-0.71-2.62c-0.16-0.61-0.321-1.21-0.491-1.85
		c-0.08,0.01-0.16,0.01-0.239,0.03c-1.041,0.28-2.08,0.56-3.121,0.85c-0.85,0.23-1.709,0.45-2.559,0.68
		c-0.041,0.01-0.07,0.02-0.13,0c0.2-0.27,0.46-0.5,0.7-0.74c0.239-0.25,0.479-0.49,0.729-0.74c0.25-0.24,0.491-0.49,0.741-0.73
		c0.24-0.25,0.49-0.49,0.73-0.74c0.25-0.24,0.489-0.48,0.739-0.73c0.241-0.24,0.481-0.49,0.741-0.75
		c-0.07-0.07-0.121-0.14-0.18-0.19c-1.29-1.29-2.57-2.58-3.861-3.87c-0.049-0.05-0.109-0.09-0.139-0.15
		c-0.03-0.04-0.03-0.1-0.04-0.15c0.059-0.01,0.109-0.04,0.16-0.03c0.26,0.06,0.51,0.13,0.76,0.2c0.969,0.26,1.929,0.52,2.889,0.78
		c0.62,0.16,1.241,0.33,1.861,0.5c0.07,0.01,0.13,0.02,0.21,0.03c0.099-0.36,0.2-0.71,0.29-1.06c0.2-0.74,0.4-1.48,0.599-2.22
		c0.191-0.72,0.381-1.45,0.58-2.17c0.021-0.1,0.051-0.19,0.08-0.29c0.021-0.03,0.061-0.07,0.09-0.06c0.04,0,0.09,0.03,0.111,0.07
		c0.049,0.16,0.099,0.33,0.139,0.5c0.34,1.28,0.681,2.56,1.031,3.84c0.12,0.45,0.24,0.91,0.37,1.35c0.159,0.03,1.83-0.39,2.938-0.72
		c1.271-0.39,2.761-0.76,2.941-0.73c0.059,0.11-0.04,0.18-0.101,0.24c-0.261,0.27-0.529,0.53-0.79,0.79
		c-1.051,1.06-2.109,2.11-3.17,3.17c-0.04,0.04-0.08,0.09-0.149,0.17c0.729,0.74,1.469,1.47,2.2,2.2c0.729,0.74,1.46,1.47,2.188,2.2
		L33.71,26.42z"/>
</g>
</svg>
