<svg id="Layer_1" data-name="Layer 1" xmlns="http://www.w3.org/2000/svg" viewBox="0 0 316 70"><defs><style>.cls-1{fill:#da0000;}</style></defs><title>RC_Logo_V2</title><polygon points="73.96 37.12 73.96 42.1 90.9 42.1 90.9 52.06 73.96 52.06 73.96 59.04 91.89 59.04 91.89 70 62 70 62 27.15 91.89 27.15 91.89 37.12 73.96 37.12"/><path d="M134.61,56.22a12,12,0,0,1-5,10.17c-3.25,2.39-7.84,3.61-13.64,3.61a35.88,35.88,0,0,1-9.32-1.24A22.74,22.74,0,0,1,99,65.33l-.64-.47,4.17-9.4,1,.62a24.45,24.45,0,0,0,6.08,2.78,22.37,22.37,0,0,0,6.45,1,10.94,10.94,0,0,0,4.82-.83c1.17-.6,1.3-1.32,1.3-1.79S122,56.13,121,55.48A22.34,22.34,0,0,0,115,53.64a35.14,35.14,0,0,1-9.25-2.94,11.55,11.55,0,0,1-4.9-4.37,12.23,12.23,0,0,1-1.41-6.05,12.42,12.42,0,0,1,2.3-7.31,15,15,0,0,1,6.36-5,22.66,22.66,0,0,1,9.17-1.77,30.84,30.84,0,0,1,8.84,1.28A18.51,18.51,0,0,1,133,30.86l.56.47-4.1,9.41-1-.7a21.8,21.8,0,0,0-5.42-2.77,17.91,17.91,0,0,0-5.64-.95,7.8,7.8,0,0,0-4.18,1,2.43,2.43,0,0,0-1.31,2.18,1.45,1.45,0,0,0,.38,1,5.21,5.21,0,0,0,2,1.1,36.15,36.15,0,0,0,5,1.35,35.86,35.86,0,0,1,9,3,12,12,0,0,1,4.89,4.33A11.58,11.58,0,0,1,134.61,56.22Z"/><polygon points="174.6 27.15 174.6 38.11 162.64 38.11 162.64 70 149.69 70 149.69 38.11 137.73 38.11 137.73 27.15 174.6 27.15"/><path d="M218.88,36.49a18.36,18.36,0,0,0-7.47-7.66,25.4,25.4,0,0,0-22.67,0,18.78,18.78,0,0,0-7.53,7.65A24.2,24.2,0,0,0,178.57,48a24.75,24.75,0,0,0,2.61,11.59,18.34,18.34,0,0,0,7.53,7.71,25.38,25.38,0,0,0,22.7,0,18.22,18.22,0,0,0,7.47-7.72A25,25,0,0,0,221.45,48,24.65,24.65,0,0,0,218.88,36.49ZM206.49,56.92a8.56,8.56,0,0,1-12.81,0c-1.56-2-2.36-5-2.36-8.93s.8-6.89,2.36-8.84a8.6,8.6,0,0,1,12.81,0c1.59,2,2.39,4.93,2.39,8.81S208.08,54.93,206.49,56.92Z"/><path d="M259.85,55.39l4,9.41-.52.47a17.45,17.45,0,0,1-6.41,3.47A26.32,26.32,0,0,1,248.89,70a23.6,23.6,0,0,1-11.57-2.74,18.83,18.83,0,0,1-7.67-7.76A24.07,24.07,0,0,1,227,48a23.77,23.77,0,0,1,2.67-11.39,19,19,0,0,1,7.67-7.74,23.73,23.73,0,0,1,11.57-2.73,26.31,26.31,0,0,1,8.06,1.25,17.61,17.61,0,0,1,6.41,3.48l.52.47-4,9.41-1-.72a16.46,16.46,0,0,0-9.73-3.43c-3,0-5.24.91-6.81,2.78s-2.4,4.8-2.4,8.62.81,6.8,2.4,8.71,3.8,2.8,6.81,2.8a16.45,16.45,0,0,0,9.73-3.42Z"/><polygon points="316 70 300.35 70 285.2 53.09 285.2 70 272.25 70 272.25 27.15 285.2 27.15 285.2 43.13 299.89 27.15 315.46 27.15 296.16 47.57 316 70"/><path d="M51.18,64.11Q44.33,54,37.48,44a3.18,3.18,0,0,1-.17-.27l1-.34a21.4,21.4,0,0,0,6.48-3.65,20.63,20.63,0,0,0,5.6-7.42,20.27,20.27,0,0,0,1.46-4.63,25.74,25.74,0,0,0,.41-6.55,22,22,0,0,0-2.18-8.42A21.07,21.07,0,0,0,46.3,7.36a21.42,21.42,0,0,0-7.53-5A28.28,28.28,0,0,0,31.39.56c-1.1-.13-2.2-.23-3.3-.29C26.39.17,24.68.12,23,0l-.61,0H.15V12.08c.77-.12,1.5-.24,2.24-.34s1.49-.19,2.23-.25,1.5-.1,2.25-.13l2.28,0V9h3v5H23.24a28.19,28.19,0,0,1,0,3H12.15V27h11v3h-11v4.85h-3l0-3-.27,0-2.7-.06A35.77,35.77,0,0,1,2,31.32C1.39,31.23.76,31.11.12,31c0,0,0,0-.07,0H0l0,0s0,0,0,.08V70H19.15V46.08l0,0s0,0,0,0h0L33.19,70h22v0Z"/><path class="cls-1" d="M33.71,26.42l-2-.53-2-.54c-.67-.18-1.32-.39-2-.53-.1.37-.2.71-.29,1-.17.62-.33,1.24-.5,1.86s-.33,1.28-.51,1.91l-.24.88c0,.05-.06.11-.1.12s-.1-.06-.12-.12L25.6,29.3c-.24-.87-.48-1.75-.71-2.62l-.49-1.85a2,2,0,0,0-.24,0L21,25.71l-2.56.68a.19.19,0,0,1-.13,0,7,7,0,0,1,.7-.74l.73-.74.74-.73.73-.74.74-.73.74-.75c-.07-.07-.12-.14-.18-.19L18.69,17.9a.66.66,0,0,1-.14-.15.37.37,0,0,1,0-.15c.06,0,.11,0,.16,0l.76.2,2.89.78,1.86.5.21,0c.1-.36.2-.71.29-1.06l.6-2.22c.19-.72.38-1.45.58-2.17,0-.1,0-.19.08-.29s.06-.07.09-.06a.14.14,0,0,1,.11.07c0,.16.1.33.14.5.34,1.28.68,2.56,1,3.84.12.45.24.91.37,1.35a23.18,23.18,0,0,0,2.94-.72,19.4,19.4,0,0,1,2.94-.73c.06.11,0,.18-.1.24l-.79.79L29.5,21.79l-.15.17c.73.74,1.47,1.47,2.2,2.2l2.19,2.2Z"/></svg>