<?xml version="1.0" encoding="utf-8"?>
<!-- Generator: Adobe Illustrator 15.0.0, SVG Export Plug-In . SVG Version: 6.00 Build 0)  -->
<!DOCTYPE svg PUBLIC "-//W3C//DTD SVG 1.1//EN" "http://www.w3.org/Graphics/SVG/1.1/DTD/svg11.dtd">
<svg version="1.1" id="Layer_1" xmlns="http://www.w3.org/2000/svg" xmlns:xlink="http://www.w3.org/1999/xlink" x="0px" y="0px"
	 width="33.8px" height="33.8px" viewBox="0 0 33.8 33.8" enable-background="new 0 0 33.8 33.8" xml:space="preserve">
<g>
	<defs>
		<rect id="SVGID_1_" width="33.8" height="33.8"/>
	</defs>
	<clipPath id="SVGID_2_">
		<use xlink:href="#SVGID_1_"  overflow="visible"/>
	</clipPath>
	<path clip-path="url(#SVGID_2_)" fill="#b2bbc4" d="M16.899,33.8C7.6,33.8,0,26.199,0,16.9C0,7.6,7.6,0,16.899,0
		C26.2,0,33.8,7.6,33.8,16.9C33.8,26.199,26.2,33.8,16.899,33.8 M16.899,1.8C8.6,1.8,1.8,8.6,1.8,16.9c0,8.299,6.8,15.1,15.1,15.1
		c8.301,0,15.102-6.801,15.102-15.1C32.001,8.6,25.2,1.8,16.899,1.8"/>
	<path clip-path="url(#SVGID_2_)" fill="#b2bbc4" d="M7,29.1L5.3,28.4c0.5-1.2,2-1.9,3.8-2.601c1.7-0.8,3.799-1.7,3.799-2.8v-1.5
		C12.3,21,11.3,19.9,11.1,18.3c-0.5-0.5-1.3-1.4-1.3-2.6c0-0.7,0.3-1.3,0.5-1.6c-0.1-0.8-0.401-2.3-0.401-3.5
		c0-3.9,2.701-6.4,6.9-6.4c1.2,0,2.7,0.3,3.5,1.2c1.9,0.3,3.4,2.6,3.4,5.2c0,1.7-0.301,3.1-0.5,3.8c0.199,0.3,0.4,0.8,0.4,1.4
		c0,1.3-0.701,2.2-1.301,2.601C22.101,20,21.2,21.1,20.601,21.6v1.5c0,1,1.699,1.601,3.399,2.2c1.899,0.7,3.899,1.4,4.5,3.101
		L26.8,29.1c-0.3-0.8-2-1.399-3.4-2c-2.199-0.8-4.6-1.699-4.6-4v-2.5l0.4-0.3c0,0,1.3-0.8,1.3-2.5v-0.6l0.601-0.2
		c0.1,0,0.699-0.3,0.699-1.2c0-0.3-0.199-0.6-0.3-0.6l-0.3-0.4l0.199-0.5c0,0,0.5-1.6,0.5-3.6c0-1.8-1-3.4-2.1-3.4h-0.5L19,6.8
		c-0.2-0.3-1-0.7-2.2-0.7c-3.2,0-5.1,1.7-5.1,4.6c0,1.4,0.5,3.5,0.5,3.6l0.1,0.5l-0.401,0.4c0,0-0.299,0.3-0.299,0.7
		c0,0.5,0.6,1.2,0.9,1.4l0.399,0.3v0.5c0,1.5,1.301,2.4,1.401,2.4l0.4,0.3v2.5c0,2.3-2.6,3.5-4.9,4.5C8.7,27.9,7.2,28.6,7,29.1"/>
</g>
</svg>
