<svg xmlns="http://www.w3.org/2000/svg" viewBox="0 0 55.15 70"><defs><style>.cls-1{fill:#fff;}.cls-2{fill:#da0000;}</style></defs><title>RC_R_White</title><g id="Layer_2" data-name="Layer 2"><g id="Layer_1-2" data-name="Layer 1"><path class="cls-1" d="M51.18,64.11Q44.33,54,37.48,44a3.18,3.18,0,0,1-.17-.27l1-.34a21.4,21.4,0,0,0,6.48-3.65,20.63,20.63,0,0,0,5.6-7.42,20.27,20.27,0,0,0,1.46-4.63,25.74,25.74,0,0,0,.41-6.55,22,22,0,0,0-2.18-8.42A21.07,21.07,0,0,0,46.3,7.36a21.42,21.42,0,0,0-7.53-5A28.28,28.28,0,0,0,31.39.56c-1.1-.13-2.2-.23-3.3-.29C26.39.17,24.68.12,23,0l-.61,0H.15V12.08c.77-.12,1.5-.24,2.24-.34s1.49-.19,2.23-.25,1.5-.1,2.25-.13l2.28,0V9h3v5H23.24a28.19,28.19,0,0,1,0,3H12.15V27h11v3h-11v4.85h-3l0-3-.27,0-2.7-.06A35.77,35.77,0,0,1,2,31.32C1.39,31.23.76,31.11.12,31c0,0,0,0-.07,0H0l0,0s0,0,0,.08V70H19.15V46.08l0,0s0,0,0,0h0L33.19,70h22v0Z"/><path class="cls-2" d="M33.71,26.42l-2-.53-2-.54c-.67-.18-1.32-.39-2-.53-.1.37-.2.71-.29,1-.17.62-.33,1.24-.5,1.86s-.33,1.28-.51,1.91l-.24.88c0,.05-.06.11-.1.12s-.1-.06-.12-.12L25.6,29.3c-.24-.87-.48-1.75-.71-2.62l-.49-1.85a2,2,0,0,0-.24,0L21,25.71l-2.56.68a.19.19,0,0,1-.13,0,7,7,0,0,1,.7-.74l.73-.74.74-.73.73-.74.74-.73.74-.75c-.07-.07-.12-.14-.18-.19L18.69,17.9a.66.66,0,0,1-.14-.15.37.37,0,0,1,0-.15c.06,0,.11,0,.16,0l.76.2,2.89.78,1.86.5.21,0c.1-.36.2-.71.29-1.06l.6-2.22c.19-.72.38-1.45.58-2.17,0-.1,0-.19.08-.29s.06-.07.09-.06a.14.14,0,0,1,.11.07c0,.16.1.33.14.5.34,1.28.68,2.56,1,3.84.12.45.24.91.37,1.35a23.18,23.18,0,0,0,2.94-.72,19.4,19.4,0,0,1,2.94-.73c.06.11,0,.18-.1.24l-.79.79L29.5,21.79l-.15.17c.73.74,1.47,1.47,2.2,2.2l2.19,2.2Z"/></g></g></svg>